<?xml version="1.0" encoding="UTF-8"?>
<svg id="Layer_2" data-name="Layer 2" xmlns="http://www.w3.org/2000/svg" viewBox="0 0 494.01 548.18">
  <defs>
    <style>
      .cls-1 {
        fill: #000;
        stroke-width: 0px;
      }
    </style>
  </defs>
  <g id="Layer_1-2" data-name="Layer 1">
    <g>
      <path class="cls-1" d="M12.94,227.16c-7.15,0-12.94,5.79-12.94,12.94v67.97c0,7.15,5.79,12.94,12.94,12.94s12.94-5.79,12.94-12.94v-67.97c0-7.15-5.79-12.94-12.94-12.94ZM68.82,244.2c-7.15,0-12.94,5.79-12.94,12.94v33.89c0,7.15,5.79,12.94,12.94,12.94s12.94-5.79,12.94-12.94v-33.89c0-7.15-5.79-12.94-12.94-12.94ZM124.7,199.63c-7.15,0-12.94,5.79-12.94,12.94v123.04c0,7.15,5.79,12.94,12.94,12.94s12.94-5.79,12.94-12.94v-123.04c0-7.15-5.79-12.94-12.94-12.94ZM180.58,227.16c-7.15,0-12.94,5.79-12.94,12.94v67.97c0,7.15,5.79,12.94,12.94,12.94s12.94-5.79,12.94-12.94v-67.97c0-7.15-5.79-12.94-12.94-12.94ZM236.46,170.97c-7.15,0-12.94,5.79-12.94,12.94v180.35c0,7.15,5.79,12.94,12.94,12.94s12.94-5.79,12.94-12.94v-180.35c0-7.15-5.79-12.94-12.94-12.94ZM292.34,213.78c-7.15,0-12.94,5.79-12.94,12.94v94.74c0,7.15,5.79,12.94,12.94,12.94s12.94-5.79,12.94-12.94v-94.74c0-7.15-5.79-12.94-12.94-12.94Z"/>
      <path class="cls-1" d="M493.98,269.83C491.68,119.44,366.17,0,215.76,0H12.71C5.69,0,0,5.69,0,12.71v125.04c0,7.02,5.69,12.71,12.71,12.71h112.23c7.02,0,12.71-5.69,12.71-12.71v-25.99h79.05c90.82,0,167.09,74.32,165.54,165.14-1.5,88.22-73.74,159.52-162.31,159.52h-82.28v-25.98c0-7.02-5.69-12.71-12.71-12.71H12.71c-7.02,0-12.71,5.69-12.71,12.71v125.04c0,7.02,5.69,12.71,12.71,12.7h207.21c152.55,0,276.39-125.27,274.06-278.35Z"/>
    </g>
  </g>
</svg>